<?xml version="1.0" encoding="UTF-8"?>
<svg width="22px" height="20px" viewBox="0 0 22 20" version="1.1" xmlns="http://www.w3.org/2000/svg" xmlns:xlink="http://www.w3.org/1999/xlink">
    <title>Group</title>
    <g id="Page-1" stroke="none" stroke-width="1" fill="none" fill-rule="evenodd">
        <g id="Group">
            <rect id="Rectangle" x="0" y="0" width="22" height="20"></rect>
            <g id="Grupo_6" fill-rule="nonzero">
                <path d="M0,11.4925198 C0.0582149414,11.4397147 0.672243966,11.7593243 0.736003188,11.7871164 C1.35808239,12.0623362 1.96018404,12.3808713 2.53789423,12.7403868 C4.03589546,13.6597841 5.29214685,14.9259125 6.20127733,16.4325724 C6.94143873,17.667933 7.50141102,19.9635636 9.28944137,19.9635636 C10.1667292,20.094625 11.0598962,19.8690126 11.7705067,19.3368509 C12.396292,18.4533067 12.7622247,17.4114445 12.8266921,16.3297415 C14.0463088,11.4479475 16.3739298,6.91445824 19.6281377,3.08261864 C19.8277318,2.84360624 20.0314841,2.60598346 20.2366225,2.37113989 C20.6550353,1.90023476 21.0987758,1.45257859 21.5658637,1.0301692 C21.6282368,0.97180571 21.7391224,0.853689121 21.8707991,0.718897249 C21.9966106,0.598881487 22.0347773,0.413118637 21.966517,0.253025182 C21.8982566,0.092931728 21.7379466,-0.00777249393 21.5644776,0.000470465932 C18.8755017,0.0852364886 12.4760164,1.49846674 8.87223429,12.34018 C8.87223429,12.34018 3.38062481,8.52709859 0.00138607003,11.4925198 L0,11.4925198 Z" id="Trazado_1" fill="#09CB7E"></path>
                <g id="Grupo_1" transform="translate(11.827335, 1.750679)" fill="#FFFFFF">
                    <path d="M1.68961984,5.93020255 C1.61830964,5.93035412 1.54814508,5.91217006 1.48586755,5.87734391 C1.38660075,5.82425268 1.31302952,5.73309975 1.28194851,5.62469328 C1.25086751,5.5162868 1.26492977,5.39988026 1.32092521,5.30204664 C2.40578902,3.12998859 4.07888325,1.30814929 6.14860714,0.0451636233 C6.28354781,-0.022851224 6.44443127,-0.0135258429 6.57065427,0.0696269858 C6.69687727,0.152779815 6.76926354,0.297127198 6.76054586,0.448294874 C6.75182819,0.59946255 6.663331,0.734484553 6.52839033,0.8024994 C4.62049786,2.00045176 3.0756826,3.6986547 2.06108661,5.71337029 C1.98700375,5.84915981 1.84398053,5.93262457 1.68961984,5.93020255 Z M0.42275183,8.04790993 C0.276345962,8.04790993 0.140362487,7.97196621 0.0633010829,7.84716475 C-0.0137603213,7.7223633 -0.0209279055,7.56647292 0.0443547111,7.43509327 L0.467106071,6.58743305 C0.534700204,6.45214804 0.669149753,6.36329259 0.819808874,6.3543377 C0.970467994,6.34538281 1.11444798,6.41768893 1.19751296,6.54401905 C1.28057795,6.67034917 1.29010838,6.83151073 1.22251424,6.96679574 L0.80669323,7.81445597 C0.734558969,7.95758097 0.588246006,8.04784947 0.42829611,8.04790993 L0.42275183,8.04790993 Z" id="Trazado_2"></path>
                </g>
            </g>
        </g>
    </g>
</svg>