<svg xmlns="http://www.w3.org/2000/svg" width="43" height="43" viewBox="0 0 43 43">
    <g fill="none" fill-rule="evenodd">
        <g>
            <g transform="translate(-159 -3116) translate(160 3117)">
                <circle cx="20.5" cy="20.5" r="20.5" stroke="#FFF"/>
                <g fill-rule="nonzero">
                    <path fill="#09CB7E" d="M.552 9.456c.048-.043.555.219.607.242.514.226 1.012.488 1.49.784 1.235.756 2.272 1.798 3.022 3.038.61 1.017 1.072 2.905 2.547 2.905.707 0 1.51.023 2.047-.516.656-.66.668-1.623.871-2.474 1.006-4.017 2.926-7.746 5.61-10.899.165-.197.333-.392.502-.585.345-.387.711-.756 1.096-1.103.052-.048.143-.145.251-.256.099-.1.127-.251.071-.381-.056-.13-.184-.213-.326-.211-2.218.07-7.497 1.232-10.47 10.153 0 0-4.53-3.137-7.318-.697z" transform="translate(11 12)"/>
                    <g fill="#FFF">
                        <path d="M1.702 5.319c-.059 0-.117-.015-.168-.044-.168-.093-.229-.305-.136-.473C3.172 1.608 5.292.522 5.38.477c.172-.086.381-.017.468.155.087.172.017.382-.155.468-.026.014-2.026 1.054-3.685 4.04-.061.11-.179.18-.306.179zM.657 7.061c-.12 0-.233-.062-.296-.165-.064-.103-.07-.23-.016-.339l.349-.697c.056-.111.167-.184.29-.192.125-.007.244.052.313.156.068.104.076.237.02.348l-.348.697c-.06.118-.18.192-.312.192z" transform="translate(11 12) translate(10 1)"/>
                    </g>
                </g>
            </g>
        </g>
    </g>
</svg>
