<svg xmlns="http://www.w3.org/2000/svg" width="30" height="30" viewBox="0 0 30 30">
  <g id="check_list_btn" transform="translate(0 0.054)">
    <g id="Grupo_4" data-name="Grupo 4" transform="translate(1 0.601)">
      <g id="Grupo_3" data-name="Grupo 3" transform="translate(0 0)">
        <g id="Grupo_5" data-name="Grupo 5">
          <rect id="Rectángulo_1" data-name="Rectángulo 1" width="30" height="30" transform="translate(-1 -0.654)" fill="none"/>
        </g>
        <g id="Grupo_6" data-name="Grupo 6" transform="translate(5.877 7.406)">
          <path id="Trazado_1" data-name="Trazado 1" d="M.552,8.27c.042-.038.485.192.531.212a10.513,10.513,0,0,1,1.3.686,7.925,7.925,0,0,1,2.643,2.657c.534.889.938,2.541,2.228,2.541a2.4,2.4,0,0,0,1.79-.451,4.167,4.167,0,0,0,.762-2.164,23.52,23.52,0,0,1,4.907-9.533c.144-.172.291-.343.439-.512a12.471,12.471,0,0,1,.959-.965c.045-.042.125-.127.22-.224A.3.3,0,0,0,16.11,0C14.17.061,9.553,1.078,6.953,8.88c0,0-3.962-2.744-6.4-.61Z" transform="translate(-0.552 0)" fill="#09cb7e"/>
          <g id="Grupo_1" data-name="Grupo 1" transform="translate(8.533 1.26)">
            <path id="Trazado_2" data-name="Trazado 2" d="M1.527,4.707a.3.3,0,0,1-.147-.038.3.3,0,0,1-.119-.414A9.307,9.307,0,0,1,4.744.472a.3.3,0,1,1,.274.545A8.906,8.906,0,0,0,1.795,4.551.3.3,0,0,1,1.527,4.707ZM.613,6.231A.305.305,0,0,1,.34,5.79l.305-.61a.3.3,0,1,1,.545.273l-.3.61a.306.306,0,0,1-.273.168Z" transform="translate(-0.308 -0.44)" fill="#fff"/>
          </g>
        </g>
      </g>
    </g>
  </g>
</svg>
